<svg id="visual" viewBox="0 0 1920 1080" width="1920" height="1080" xmlns="http://www.w3.org/2000/svg" xmlns:xlink="http://www.w3.org/1999/xlink" version="1.1"><path d="M0 422L29.2 431C58.3 440 116.7 458 174.8 449C233 440 291 404 349.2 360.8C407.3 317.7 465.7 267.3 523.8 256.5C582 245.7 640 274.3 698.2 315.7C756.3 357 814.7 411 872.8 411C931 411 989 357 1047.2 351.7C1105.3 346.3 1163.7 389.7 1221.8 379C1280 368.3 1338 303.7 1396.2 283.8C1454.3 264 1512.7 289 1570.8 314.2C1629 339.3 1687 364.7 1745.2 364.7C1803.3 364.7 1861.7 339.3 1890.8 326.7L1920 314L1920 0L1890.8 0C1861.7 0 1803.3 0 1745.2 0C1687 0 1629 0 1570.8 0C1512.7 0 1454.3 0 1396.2 0C1338 0 1280 0 1221.8 0C1163.7 0 1105.3 0 1047.2 0C989 0 931 0 872.8 0C814.7 0 756.3 0 698.2 0C640 0 582 0 523.8 0C465.7 0 407.3 0 349.2 0C291 0 233 0 174.8 0C116.7 0 58.3 0 29.2 0L0 0Z" fill="#0b56c7"></path><path d="M0 584L29.2 578.7C58.3 573.3 116.7 562.7 174.8 541.2C233 519.7 291 487.3 349.2 465.7C407.3 444 465.7 433 523.8 424C582 415 640 408 698.2 440.5C756.3 473 814.7 545 872.8 564.7C931 584.3 989 551.7 1047.2 542.7C1105.3 533.7 1163.7 548.3 1221.8 537.7C1280 527 1338 491 1396.2 467.5C1454.3 444 1512.7 433 1570.8 454.5C1629 476 1687 530 1745.2 548C1803.3 566 1861.7 548 1890.8 539L1920 530L1920 312L1890.8 324.7C1861.7 337.3 1803.3 362.7 1745.2 362.7C1687 362.7 1629 337.3 1570.8 312.2C1512.7 287 1454.3 262 1396.2 281.8C1338 301.7 1280 366.3 1221.8 377C1163.7 387.7 1105.3 344.3 1047.2 349.7C989 355 931 409 872.8 409C814.7 409 756.3 355 698.2 313.7C640 272.3 582 243.7 523.8 254.5C465.7 265.3 407.3 315.7 349.2 358.8C291 402 233 438 174.8 447C116.7 456 58.3 438 29.2 429L0 420Z" fill="#0348bc"></path><path d="M0 854L29.2 836C58.3 818 116.7 782 174.8 767.7C233 753.3 291 760.7 349.2 762.5C407.3 764.3 465.7 760.7 523.8 751.7C582 742.7 640 728.3 698.2 732C756.3 735.7 814.7 757.3 872.8 757.3C931 757.3 989 735.7 1047.2 741C1105.3 746.3 1163.7 778.7 1221.8 778.7C1280 778.7 1338 746.3 1396.2 748.2C1454.3 750 1512.7 786 1570.8 789.5C1629 793 1687 764 1745.2 765.8C1803.3 767.7 1861.7 800.3 1890.8 816.7L1920 833L1920 528L1890.8 537C1861.7 546 1803.3 564 1745.2 546C1687 528 1629 474 1570.8 452.5C1512.7 431 1454.3 442 1396.2 465.5C1338 489 1280 525 1221.8 535.7C1163.7 546.3 1105.3 531.7 1047.2 540.7C989 549.7 931 582.3 872.8 562.7C814.7 543 756.3 471 698.2 438.5C640 406 582 413 523.8 422C465.7 431 407.3 442 349.2 463.7C291 485.3 233 517.7 174.8 539.2C116.7 560.7 58.3 571.3 29.2 576.7L0 582Z" fill="#003ab0"></path><path d="M0 941L29.2 937.3C58.3 933.7 116.7 926.3 174.8 915.5C233 904.7 291 890.3 349.2 888.5C407.3 886.7 465.7 897.3 523.8 890.2C582 883 640 858 698.2 863.5C756.3 869 814.7 905 872.8 903.2C931 901.3 989 861.7 1047.2 861.7C1105.3 861.7 1163.7 901.3 1221.8 904.8C1280 908.3 1338 875.7 1396.2 881C1454.3 886.3 1512.7 929.7 1570.8 940.5C1629 951.3 1687 929.7 1745.2 929.7C1803.3 929.7 1861.7 951.3 1890.8 962.2L1920 973L1920 831L1890.8 814.7C1861.7 798.3 1803.3 765.7 1745.2 763.8C1687 762 1629 791 1570.8 787.5C1512.7 784 1454.3 748 1396.2 746.2C1338 744.3 1280 776.7 1221.8 776.7C1163.7 776.7 1105.3 744.3 1047.2 739C989 733.7 931 755.3 872.8 755.3C814.7 755.3 756.3 733.7 698.2 730C640 726.3 582 740.7 523.8 749.7C465.7 758.7 407.3 762.3 349.2 760.5C291 758.7 233 751.3 174.8 765.7C116.7 780 58.3 816 29.2 834L0 852Z" fill="#002ba4"></path><path d="M0 1081L29.2 1081C58.3 1081 116.7 1081 174.8 1081C233 1081 291 1081 349.2 1081C407.3 1081 465.7 1081 523.8 1081C582 1081 640 1081 698.2 1081C756.3 1081 814.7 1081 872.8 1081C931 1081 989 1081 1047.2 1081C1105.3 1081 1163.7 1081 1221.8 1081C1280 1081 1338 1081 1396.2 1081C1454.3 1081 1512.7 1081 1570.8 1081C1629 1081 1687 1081 1745.2 1081C1803.3 1081 1861.7 1081 1890.8 1081L1920 1081L1920 971L1890.8 960.2C1861.7 949.3 1803.3 927.7 1745.2 927.7C1687 927.7 1629 949.3 1570.8 938.5C1512.7 927.7 1454.3 884.3 1396.2 879C1338 873.7 1280 906.3 1221.8 902.8C1163.7 899.3 1105.3 859.7 1047.2 859.7C989 859.7 931 899.3 872.8 901.2C814.7 903 756.3 867 698.2 861.5C640 856 582 881 523.8 888.2C465.7 895.3 407.3 884.7 349.2 886.5C291 888.3 233 902.7 174.8 913.5C116.7 924.3 58.3 931.7 29.2 935.3L0 939Z" fill="#001b98"></path></svg>