<svg id="visual" viewBox="0 0 2560 1440" width="2560" height="1440" xmlns="http://www.w3.org/2000/svg" xmlns:xlink="http://www.w3.org/1999/xlink" version="1.1"><path d="M0 563L38.8 575C77.7 587 155.3 611 232.8 599C310.3 587 387.7 539 465.2 481.3C542.7 423.7 620.3 356.3 698 341.8C775.7 327.3 853.3 365.7 931 420.8C1008.7 476 1086.3 548 1163.8 548C1241.3 548 1318.7 476 1396.2 468.8C1473.7 461.7 1551.3 519.3 1629 505C1706.7 490.7 1784.3 404.3 1862 378C1939.7 351.7 2017.3 385.3 2094.8 418.8C2172.3 452.3 2249.7 485.7 2327.2 485.7C2404.7 485.7 2482.3 452.3 2521.2 435.7L2560 419L2560 0L2521.2 0C2482.3 0 2404.7 0 2327.2 0C2249.7 0 2172.3 0 2094.8 0C2017.3 0 1939.7 0 1862 0C1784.3 0 1706.7 0 1629 0C1551.3 0 1473.7 0 1396.2 0C1318.7 0 1241.3 0 1163.8 0C1086.3 0 1008.7 0 931 0C853.3 0 775.7 0 698 0C620.3 0 542.7 0 465.2 0C387.7 0 310.3 0 232.8 0C155.3 0 77.7 0 38.8 0L0 0Z" fill="#0b56c7"></path><path d="M0 779L38.8 771.7C77.7 764.3 155.3 749.7 232.8 720.8C310.3 692 387.7 649 465.2 620.3C542.7 591.7 620.3 577.3 698 565.3C775.7 553.3 853.3 543.7 931 586.8C1008.7 630 1086.3 726 1163.8 752.3C1241.3 778.7 1318.7 735.3 1396.2 723.3C1473.7 711.3 1551.3 730.7 1629 716.3C1706.7 702 1784.3 654 1862 622.8C1939.7 591.7 2017.3 577.3 2094.8 606.2C2172.3 635 2249.7 707 2327.2 731C2404.7 755 2482.3 731 2521.2 719L2560 707L2560 417L2521.2 433.7C2482.3 450.3 2404.7 483.7 2327.2 483.7C2249.7 483.7 2172.3 450.3 2094.8 416.8C2017.3 383.3 1939.7 349.7 1862 376C1784.3 402.3 1706.7 488.7 1629 503C1551.3 517.3 1473.7 459.7 1396.2 466.8C1318.7 474 1241.3 546 1163.8 546C1086.3 546 1008.7 474 931 418.8C853.3 363.7 775.7 325.3 698 339.8C620.3 354.3 542.7 421.7 465.2 479.3C387.7 537 310.3 585 232.8 597C155.3 609 77.7 585 38.8 573L0 561Z" fill="#0348bc"></path><path d="M0 1139L38.8 1115C77.7 1091 155.3 1043 232.8 1023.7C310.3 1004.3 387.7 1013.7 465.2 1016C542.7 1018.3 620.3 1013.7 698 1001.7C775.7 989.7 853.3 970.3 931 975.2C1008.7 980 1086.3 1009 1163.8 1009C1241.3 1009 1318.7 980 1396.2 987.2C1473.7 994.3 1551.3 1037.7 1629 1037.7C1706.7 1037.7 1784.3 994.3 1862 996.7C1939.7 999 2017.3 1047 2094.8 1051.8C2172.3 1056.7 2249.7 1018.3 2327.2 1020.8C2404.7 1023.3 2482.3 1066.7 2521.2 1088.3L2560 1110L2560 705L2521.2 717C2482.3 729 2404.7 753 2327.2 729C2249.7 705 2172.3 633 2094.8 604.2C2017.3 575.3 1939.7 589.7 1862 620.8C1784.3 652 1706.7 700 1629 714.3C1551.3 728.7 1473.7 709.3 1396.2 721.3C1318.7 733.3 1241.3 776.7 1163.8 750.3C1086.3 724 1008.7 628 931 584.8C853.3 541.7 775.7 551.3 698 563.3C620.3 575.3 542.7 589.7 465.2 618.3C387.7 647 310.3 690 232.8 718.8C155.3 747.7 77.7 762.3 38.8 769.7L0 777Z" fill="#003ab0"></path><path d="M0 1254L38.8 1249.2C77.7 1244.3 155.3 1234.7 232.8 1220.2C310.3 1205.7 387.7 1186.3 465.2 1184C542.7 1181.7 620.3 1196.3 698 1186.8C775.7 1177.3 853.3 1143.7 931 1150.8C1008.7 1158 1086.3 1206 1163.8 1203.5C1241.3 1201 1318.7 1148 1396.2 1148C1473.7 1148 1551.3 1201 1629 1205.8C1706.7 1210.7 1784.3 1167.3 1862 1174.5C1939.7 1181.7 2017.3 1239.3 2094.8 1253.8C2172.3 1268.3 2249.7 1239.7 2327.2 1239.7C2404.7 1239.7 2482.3 1268.3 2521.2 1282.7L2560 1297L2560 1108L2521.2 1086.3C2482.3 1064.7 2404.7 1021.3 2327.2 1018.8C2249.7 1016.3 2172.3 1054.7 2094.8 1049.8C2017.3 1045 1939.7 997 1862 994.7C1784.3 992.3 1706.7 1035.7 1629 1035.7C1551.3 1035.7 1473.7 992.3 1396.2 985.2C1318.7 978 1241.3 1007 1163.8 1007C1086.3 1007 1008.7 978 931 973.2C853.3 968.3 775.7 987.7 698 999.7C620.3 1011.7 542.7 1016.3 465.2 1014C387.7 1011.7 310.3 1002.3 232.8 1021.7C155.3 1041 77.7 1089 38.8 1113L0 1137Z" fill="#002ba4"></path><path d="M0 1441L38.8 1441C77.7 1441 155.3 1441 232.8 1441C310.3 1441 387.7 1441 465.2 1441C542.7 1441 620.3 1441 698 1441C775.7 1441 853.3 1441 931 1441C1008.7 1441 1086.3 1441 1163.8 1441C1241.3 1441 1318.7 1441 1396.2 1441C1473.7 1441 1551.3 1441 1629 1441C1706.7 1441 1784.3 1441 1862 1441C1939.7 1441 2017.3 1441 2094.8 1441C2172.3 1441 2249.7 1441 2327.2 1441C2404.7 1441 2482.3 1441 2521.2 1441L2560 1441L2560 1295L2521.2 1280.7C2482.3 1266.3 2404.7 1237.7 2327.2 1237.7C2249.7 1237.7 2172.3 1266.3 2094.8 1251.8C2017.3 1237.3 1939.7 1179.7 1862 1172.5C1784.3 1165.3 1706.7 1208.7 1629 1203.8C1551.3 1199 1473.7 1146 1396.2 1146C1318.7 1146 1241.3 1199 1163.8 1201.5C1086.3 1204 1008.7 1156 931 1148.8C853.3 1141.7 775.7 1175.3 698 1184.8C620.3 1194.3 542.7 1179.7 465.2 1182C387.7 1184.3 310.3 1203.7 232.8 1218.2C155.3 1232.7 77.7 1242.3 38.8 1247.2L0 1252Z" fill="#001b98"></path></svg>