<svg id="visual" viewBox="0 0 3840 2160" width="3840" height="2160" xmlns="http://www.w3.org/2000/svg" xmlns:xlink="http://www.w3.org/1999/xlink" version="1.1"><path d="M0 843L58.2 861C116.3 879 232.7 915 349 897C465.3 879 581.7 807 698 720.7C814.3 634.3 930.7 533.7 1047 512.2C1163.3 490.7 1279.7 548.3 1396 631.2C1512.3 714 1628.7 822 1745.2 822C1861.7 822 1978.3 714 2094.8 703.2C2211.3 692.3 2327.7 778.7 2444 757C2560.3 735.3 2676.7 605.7 2793 566C2909.3 526.3 3025.7 576.7 3142 627.2C3258.3 677.7 3374.7 728.3 3491 728.3C3607.3 728.3 3723.7 677.7 3781.8 652.3L3840 627L3840 0L3781.8 0C3723.7 0 3607.3 0 3491 0C3374.7 0 3258.3 0 3142 0C3025.7 0 2909.3 0 2793 0C2676.7 0 2560.3 0 2444 0C2327.7 0 2211.3 0 2094.8 0C1978.3 0 1861.7 0 1745.2 0C1628.7 0 1512.3 0 1396 0C1279.7 0 1163.3 0 1047 0C930.7 0 814.3 0 698 0C581.7 0 465.3 0 349 0C232.7 0 116.3 0 58.2 0L0 0Z" fill="#0b56c7"></path><path d="M0 1167L58.2 1156.3C116.3 1145.7 232.7 1124.3 349 1081.2C465.3 1038 581.7 973 698 929.7C814.3 886.3 930.7 864.7 1047 846.7C1163.3 828.7 1279.7 814.3 1396 879.2C1512.3 944 1628.7 1088 1745.2 1127.7C1861.7 1167.3 1978.3 1102.7 2094.8 1084.7C2211.3 1066.7 2327.7 1095.3 2444 1073.7C2560.3 1052 2676.7 980 2793 933.2C2909.3 886.3 3025.7 864.7 3142 907.8C3258.3 951 3374.7 1059 3491 1095C3607.3 1131 3723.7 1095 3781.8 1077L3840 1059L3840 625L3781.8 650.3C3723.7 675.7 3607.3 726.3 3491 726.3C3374.7 726.3 3258.3 675.7 3142 625.2C3025.7 574.7 2909.3 524.3 2793 564C2676.7 603.7 2560.3 733.3 2444 755C2327.7 776.7 2211.3 690.3 2094.8 701.2C1978.3 712 1861.7 820 1745.2 820C1628.7 820 1512.3 712 1396 629.2C1279.7 546.3 1163.3 488.7 1047 510.2C930.7 531.7 814.3 632.3 698 718.7C581.7 805 465.3 877 349 895C232.7 913 116.3 877 58.2 859L0 841Z" fill="#0348bc"></path><path d="M0 1707L58.2 1671C116.3 1635 232.7 1563 349 1534.3C465.3 1505.7 581.7 1520.3 698 1524C814.3 1527.7 930.7 1520.3 1047 1502.3C1163.3 1484.3 1279.7 1455.7 1396 1462.8C1512.3 1470 1628.7 1513 1745.2 1513C1861.7 1513 1978.3 1470 2094.8 1480.8C2211.3 1491.7 2327.7 1556.3 2444 1556.3C2560.3 1556.3 2676.7 1491.7 2793 1495.3C2909.3 1499 3025.7 1571 3142 1578.2C3258.3 1585.3 3374.7 1527.7 3491 1531.2C3607.3 1534.7 3723.7 1599.3 3781.8 1631.7L3840 1664L3840 1057L3781.8 1075C3723.7 1093 3607.3 1129 3491 1093C3374.7 1057 3258.3 949 3142 905.8C3025.7 862.7 2909.3 884.3 2793 931.2C2676.7 978 2560.3 1050 2444 1071.7C2327.7 1093.3 2211.3 1064.7 2094.8 1082.7C1978.3 1100.7 1861.7 1165.3 1745.2 1125.7C1628.7 1086 1512.3 942 1396 877.2C1279.7 812.3 1163.3 826.7 1047 844.7C930.7 862.7 814.3 884.3 698 927.7C581.7 971 465.3 1036 349 1079.2C232.7 1122.3 116.3 1143.7 58.2 1154.3L0 1165Z" fill="#003ab0"></path><path d="M0 1880L58.2 1872.8C116.3 1865.7 232.7 1851.3 349 1829.8C465.3 1808.3 581.7 1779.7 698 1776C814.3 1772.3 930.7 1793.7 1047 1779.2C1163.3 1764.7 1279.7 1714.3 1396 1725.2C1512.3 1736 1628.7 1808 1745.2 1804.5C1861.7 1801 1978.3 1722 2094.8 1722C2211.3 1722 2327.7 1801 2444 1808.2C2560.3 1815.3 2676.7 1750.7 2793 1761.5C2909.3 1772.3 3025.7 1858.7 3142 1880.2C3258.3 1901.7 3374.7 1858.3 3491 1858.3C3607.3 1858.3 3723.7 1901.7 3781.8 1923.3L3840 1945L3840 1662L3781.8 1629.7C3723.7 1597.3 3607.3 1532.7 3491 1529.2C3374.7 1525.7 3258.3 1583.3 3142 1576.2C3025.7 1569 2909.3 1497 2793 1493.3C2676.7 1489.7 2560.3 1554.3 2444 1554.3C2327.7 1554.3 2211.3 1489.7 2094.8 1478.8C1978.3 1468 1861.7 1511 1745.2 1511C1628.7 1511 1512.3 1468 1396 1460.8C1279.7 1453.7 1163.3 1482.3 1047 1500.3C930.7 1518.3 814.3 1525.7 698 1522C581.7 1518.3 465.3 1503.7 349 1532.3C232.7 1561 116.3 1633 58.2 1669L0 1705Z" fill="#002ba4"></path><path d="M0 2161L58.2 2161C116.3 2161 232.7 2161 349 2161C465.3 2161 581.7 2161 698 2161C814.3 2161 930.7 2161 1047 2161C1163.3 2161 1279.7 2161 1396 2161C1512.3 2161 1628.7 2161 1745.2 2161C1861.7 2161 1978.3 2161 2094.8 2161C2211.3 2161 2327.7 2161 2444 2161C2560.3 2161 2676.7 2161 2793 2161C2909.3 2161 3025.7 2161 3142 2161C3258.3 2161 3374.7 2161 3491 2161C3607.3 2161 3723.7 2161 3781.8 2161L3840 2161L3840 1943L3781.8 1921.3C3723.7 1899.7 3607.3 1856.3 3491 1856.3C3374.7 1856.3 3258.3 1899.7 3142 1878.2C3025.7 1856.7 2909.3 1770.3 2793 1759.5C2676.7 1748.7 2560.3 1813.3 2444 1806.2C2327.7 1799 2211.3 1720 2094.8 1720C1978.3 1720 1861.7 1799 1745.2 1802.5C1628.7 1806 1512.3 1734 1396 1723.2C1279.7 1712.3 1163.3 1762.7 1047 1777.2C930.7 1791.7 814.3 1770.3 698 1774C581.7 1777.7 465.3 1806.3 349 1827.8C232.7 1849.3 116.3 1863.7 58.2 1870.8L0 1878Z" fill="#001b98"></path></svg>