<svg id="visual" viewBox="0 0 1280 720" width="1280" height="720" xmlns="http://www.w3.org/2000/svg" xmlns:xlink="http://www.w3.org/1999/xlink" version="1.1"><path d="M0 282L19.3 288C38.7 294 77.3 306 116.2 300C155 294 194 270 232.8 241.2C271.7 212.3 310.3 178.7 349 171.5C387.7 164.3 426.3 183.7 465.2 211.3C504 239 543 275 581.8 275C620.7 275 659.3 239 698.2 235.3C737 231.7 776 260.3 814.8 253C853.7 245.7 892.3 202.3 931 189.2C969.7 176 1008.3 193 1047.2 209.8C1086 226.7 1125 243.3 1163.8 243.3C1202.7 243.3 1241.3 226.7 1260.7 218.3L1280 210L1280 0L1260.7 0C1241.3 0 1202.7 0 1163.8 0C1125 0 1086 0 1047.2 0C1008.3 0 969.7 0 931 0C892.3 0 853.7 0 814.8 0C776 0 737 0 698.2 0C659.3 0 620.7 0 581.8 0C543 0 504 0 465.2 0C426.3 0 387.7 0 349 0C310.3 0 271.7 0 232.8 0C194 0 155 0 116.2 0C77.3 0 38.7 0 19.3 0L0 0Z" fill="#0b56c7"></path><path d="M0 390L19.3 386.3C38.7 382.7 77.3 375.3 116.2 360.8C155 346.3 194 324.7 232.8 310.3C271.7 296 310.3 289 349 283C387.7 277 426.3 272 465.2 293.5C504 315 543 363 581.8 376.3C620.7 389.7 659.3 368.3 698.2 362.3C737 356.3 776 365.7 814.8 358.3C853.7 351 892.3 327 931 311.5C969.7 296 1008.3 289 1047.2 303.5C1086 318 1125 354 1163.8 366C1202.7 378 1241.3 366 1260.7 360L1280 354L1280 208L1260.7 216.3C1241.3 224.7 1202.7 241.3 1163.8 241.3C1125 241.3 1086 224.7 1047.2 207.8C1008.3 191 969.7 174 931 187.2C892.3 200.3 853.7 243.7 814.8 251C776 258.3 737 229.7 698.2 233.3C659.3 237 620.7 273 581.8 273C543 273 504 237 465.2 209.3C426.3 181.7 387.7 162.3 349 169.5C310.3 176.7 271.7 210.3 232.8 239.2C194 268 155 292 116.2 298C77.3 304 38.7 292 19.3 286L0 280Z" fill="#0348bc"></path><path d="M0 570L19.3 558C38.7 546 77.3 522 116.2 512.3C155 502.7 194 507.3 232.8 508.5C271.7 509.7 310.3 507.3 349 501.3C387.7 495.3 426.3 485.7 465.2 488C504 490.3 543 504.7 581.8 504.7C620.7 504.7 659.3 490.3 698.2 494C737 497.7 776 519.3 814.8 519.3C853.7 519.3 892.3 497.7 931 498.8C969.7 500 1008.3 524 1047.2 526.5C1086 529 1125 510 1163.8 511.2C1202.7 512.3 1241.3 533.7 1260.7 544.3L1280 555L1280 352L1260.7 358C1241.3 364 1202.7 376 1163.8 364C1125 352 1086 316 1047.2 301.5C1008.3 287 969.7 294 931 309.5C892.3 325 853.7 349 814.8 356.3C776 363.7 737 354.3 698.2 360.3C659.3 366.3 620.7 387.7 581.8 374.3C543 361 504 313 465.2 291.5C426.3 270 387.7 275 349 281C310.3 287 271.7 294 232.8 308.3C194 322.7 155 344.3 116.2 358.8C77.3 373.3 38.7 380.7 19.3 384.3L0 388Z" fill="#003ab0"></path><path d="M0 627L19.3 624.7C38.7 622.3 77.3 617.7 116.2 610.5C155 603.3 194 593.7 232.8 592.5C271.7 591.3 310.3 598.7 349 593.8C387.7 589 426.3 572 465.2 575.5C504 579 543 603 581.8 601.8C620.7 600.7 659.3 574.3 698.2 574.3C737 574.3 776 600.7 814.8 603.2C853.7 605.7 892.3 584.3 931 588C969.7 591.7 1008.3 620.3 1047.2 627.5C1086 634.7 1125 620.3 1163.8 620.3C1202.7 620.3 1241.3 634.7 1260.7 641.8L1280 649L1280 553L1260.7 542.3C1241.3 531.7 1202.7 510.3 1163.8 509.2C1125 508 1086 527 1047.2 524.5C1008.3 522 969.7 498 931 496.8C892.3 495.7 853.7 517.3 814.8 517.3C776 517.3 737 495.7 698.2 492C659.3 488.3 620.7 502.7 581.8 502.7C543 502.7 504 488.3 465.2 486C426.3 483.7 387.7 493.3 349 499.3C310.3 505.3 271.7 507.7 232.8 506.5C194 505.3 155 500.7 116.2 510.3C77.3 520 38.7 544 19.3 556L0 568Z" fill="#002ba4"></path><path d="M0 721L19.3 721C38.7 721 77.3 721 116.2 721C155 721 194 721 232.8 721C271.7 721 310.3 721 349 721C387.7 721 426.3 721 465.2 721C504 721 543 721 581.8 721C620.7 721 659.3 721 698.2 721C737 721 776 721 814.8 721C853.7 721 892.3 721 931 721C969.7 721 1008.3 721 1047.2 721C1086 721 1125 721 1163.8 721C1202.7 721 1241.3 721 1260.7 721L1280 721L1280 647L1260.7 639.8C1241.3 632.7 1202.7 618.3 1163.8 618.3C1125 618.3 1086 632.7 1047.2 625.5C1008.3 618.3 969.7 589.7 931 586C892.3 582.3 853.7 603.7 814.8 601.2C776 598.7 737 572.3 698.2 572.3C659.3 572.3 620.7 598.7 581.8 599.8C543 601 504 577 465.2 573.5C426.3 570 387.7 587 349 591.8C310.3 596.7 271.7 589.3 232.8 590.5C194 591.7 155 601.3 116.2 608.5C77.3 615.7 38.7 620.3 19.3 622.7L0 625Z" fill="#001b98"></path></svg>