<svg id="visual" viewBox="0 0 1500 900" width="1500" height="900" xmlns="http://www.w3.org/2000/svg" xmlns:xlink="http://www.w3.org/1999/xlink" version="1.1"><path d="M0 253L41.7 253C83.3 253 166.7 253 250 235C333.3 217 416.7 181 500 178C583.3 175 666.7 205 750 200.5C833.3 196 916.7 157 1000 155.5C1083.3 154 1166.7 190 1250 202C1333.3 214 1416.7 202 1458.3 196L1500 190L1500 0L1458.3 0C1416.7 0 1333.3 0 1250 0C1166.7 0 1083.3 0 1000 0C916.7 0 833.3 0 750 0C666.7 0 583.3 0 500 0C416.7 0 333.3 0 250 0C166.7 0 83.3 0 41.7 0L0 0Z" fill="#001b98"></path><path d="M0 316L41.7 322C83.3 328 166.7 340 250 323.5C333.3 307 416.7 262 500 256C583.3 250 666.7 283 750 275.5C833.3 268 916.7 220 1000 218.5C1083.3 217 1166.7 262 1250 280C1333.3 298 1416.7 289 1458.3 284.5L1500 280L1500 188L1458.3 194C1416.7 200 1333.3 212 1250 200C1166.7 188 1083.3 152 1000 153.5C916.7 155 833.3 194 750 198.5C666.7 203 583.3 173 500 176C416.7 179 333.3 215 250 233C166.7 251 83.3 251 41.7 251L0 251Z" fill="#0a35bb"></path><path d="M0 559L41.7 557.5C83.3 556 166.7 553 250 533.5C333.3 514 416.7 478 500 454C583.3 430 666.7 418 750 422.5C833.3 427 916.7 448 1000 470.5C1083.3 493 1166.7 517 1250 514C1333.3 511 1416.7 481 1458.3 466L1500 451L1500 278L1458.3 282.5C1416.7 287 1333.3 296 1250 278C1166.7 260 1083.3 215 1000 216.5C916.7 218 833.3 266 750 273.5C666.7 281 583.3 248 500 254C416.7 260 333.3 305 250 321.5C166.7 338 83.3 326 41.7 320L0 314Z" fill="#0b50e0"></path><path d="M0 649L41.7 643C83.3 637 166.7 625 250 614.5C333.3 604 416.7 595 500 583C583.3 571 666.7 556 750 556C833.3 556 916.7 571 1000 590.5C1083.3 610 1166.7 634 1250 634C1333.3 634 1416.7 610 1458.3 598L1500 586L1500 449L1458.3 464C1416.7 479 1333.3 509 1250 512C1166.7 515 1083.3 491 1000 468.5C916.7 446 833.3 425 750 420.5C666.7 416 583.3 428 500 452C416.7 476 333.3 512 250 531.5C166.7 551 83.3 554 41.7 555.5L0 557Z" fill="#0066ff"></path><path d="M0 748L41.7 740.5C83.3 733 166.7 718 250 718C333.3 718 416.7 733 500 736C583.3 739 666.7 730 750 724C833.3 718 916.7 715 1000 719.5C1083.3 724 1166.7 736 1250 731.5C1333.3 727 1416.7 706 1458.3 695.5L1500 685L1500 584L1458.3 596C1416.7 608 1333.3 632 1250 632C1166.7 632 1083.3 608 1000 588.5C916.7 569 833.3 554 750 554C666.7 554 583.3 569 500 581C416.7 593 333.3 602 250 612.5C166.7 623 83.3 635 41.7 641L0 647Z" fill="#0066ff"></path><path d="M0 811L41.7 809.5C83.3 808 166.7 805 250 806.5C333.3 808 416.7 814 500 811C583.3 808 666.7 796 750 787C833.3 778 916.7 772 1000 773.5C1083.3 775 1166.7 784 1250 788.5C1333.3 793 1416.7 793 1458.3 793L1500 793L1500 683L1458.3 693.5C1416.7 704 1333.3 725 1250 729.5C1166.7 734 1083.3 722 1000 717.5C916.7 713 833.3 716 750 722C666.7 728 583.3 737 500 734C416.7 731 333.3 716 250 716C166.7 716 83.3 731 41.7 738.5L0 746Z" fill="#0b50e0"></path><path d="M0 838L41.7 842.5C83.3 847 166.7 856 250 860.5C333.3 865 416.7 865 500 862C583.3 859 666.7 853 750 847C833.3 841 916.7 835 1000 833.5C1083.3 832 1166.7 835 1250 839.5C1333.3 844 1416.7 850 1458.3 853L1500 856L1500 791L1458.3 791C1416.7 791 1333.3 791 1250 786.5C1166.7 782 1083.3 773 1000 771.5C916.7 770 833.3 776 750 785C666.7 794 583.3 806 500 809C416.7 812 333.3 806 250 804.5C166.7 803 83.3 806 41.7 807.5L0 809Z" fill="#0a35bb"></path><path d="M0 901L41.7 901C83.3 901 166.7 901 250 901C333.3 901 416.7 901 500 901C583.3 901 666.7 901 750 901C833.3 901 916.7 901 1000 901C1083.3 901 1166.7 901 1250 901C1333.3 901 1416.7 901 1458.3 901L1500 901L1500 854L1458.3 851C1416.7 848 1333.3 842 1250 837.5C1166.7 833 1083.3 830 1000 831.5C916.7 833 833.3 839 750 845C666.7 851 583.3 857 500 860C416.7 863 333.3 863 250 858.5C166.7 854 83.3 845 41.7 840.5L0 836Z" fill="#001b98"></path></svg>